HIERARCHY
ROOT Hips
{
	OFFSET 0.00000 0.00000 0.00000
	CHANNELS 6 Xposition Yposition Zposition Zrotation Yrotation Xrotation 
	JOINT LHipJoint
	{
		OFFSET 0 0 0
		CHANNELS 3 Zrotation Yrotation Xrotation
		JOINT LeftUpLeg
		{
			OFFSET 1.65674 -1.80282 0.62477
			CHANNELS 3 Zrotation Yrotation Xrotation
			JOINT LeftLeg
			{
				OFFSET 2.59720 -7.13576 0.00000
				CHANNELS 3 Zrotation Yrotation Xrotation
				JOINT LeftFoot
				{
					OFFSET 2.49236 -6.84770 0.00000
					CHANNELS 3 Zrotation Yrotation Xrotation
					JOINT LeftToeBase
					{
						OFFSET 0.19704 -0.54136 2.14581
						CHANNELS 3 Zrotation Yrotation Xrotation
						End Site
						{
							OFFSET 0.00000 -0.00000 1.11249
						}
					}
				}
			}
		}
	}
	JOINT RHipJoint
	{
		OFFSET 0 0 0
		CHANNELS 3 Zrotation Yrotation Xrotation
		JOINT RightUpLeg
		{
			OFFSET -1.61070 -1.80282 0.62476
			CHANNELS 3 Zrotation Yrotation Xrotation
			JOINT RightLeg
			{
				OFFSET -2.59502 -7.12977 0.00000
				CHANNELS 3 Zrotation Yrotation Xrotation
				JOINT RightFoot
				{
					OFFSET -2.46780 -6.78024 0.00000
					CHANNELS 3 Zrotation Yrotation Xrotation
					JOINT RightToeBase
					{
						OFFSET -0.23024 -0.63258 2.13368
						CHANNELS 3 Zrotation Yrotation Xrotation
						End Site
						{
							OFFSET -0.00000 -0.00000 1.11569
						}
					}
				}
			}
		}
	}
	JOINT LowerBack
	{
		OFFSET 0 0 0
		CHANNELS 3 Zrotation Yrotation Xrotation
		JOINT Spine
		{
			OFFSET 0.01961 2.05450 -0.14112
			CHANNELS 3 Zrotation Yrotation Xrotation
			JOINT Spine1
			{
				OFFSET 0.01021 2.06436 -0.05921
				CHANNELS 3 Zrotation Yrotation Xrotation
				JOINT Neck
				{
					OFFSET 0 0 0
					CHANNELS 3 Zrotation Yrotation Xrotation
					JOINT Neck1
					{
						OFFSET 0.00713 1.56711 0.14968
						CHANNELS 3 Zrotation Yrotation Xrotation
						JOINT Head
						{
							OFFSET 0.03429 1.56041 -0.10006
							CHANNELS 3 Zrotation Yrotation Xrotation
							End Site
							{
								OFFSET 0.01305 1.62560 -0.05265
							}
						}
					}
				}
				JOINT LeftShoulder
				{
					OFFSET 0 0 0
					CHANNELS 3 Zrotation Yrotation Xrotation
					JOINT LeftArm
					{
						OFFSET 3.54205 0.90436 -0.17364
						CHANNELS 3 Zrotation Yrotation Xrotation
						JOINT LeftForeArm
						{
							OFFSET 4.86513 -0.00000 -0.00000
							CHANNELS 3 Zrotation Yrotation Xrotation
							JOINT LeftHand
							{
								OFFSET 3.35554 -0.00000 0.00000
								CHANNELS 3 Zrotation Yrotation Xrotation
								JOINT LeftFingerBase
								{
									OFFSET 0 0 0
									CHANNELS 3 Zrotation Yrotation Xrotation
									JOINT LeftHandIndex1
									{
										OFFSET 0.66117 -0.00000 0.00000
										CHANNELS 3 Zrotation Yrotation Xrotation
										End Site
										{
											OFFSET 0.53306 -0.00000 0.00000
										}
									}
								}
								JOINT LThumb
								{
									OFFSET 0 0 0
									CHANNELS 3 Zrotation Yrotation Xrotation
									End Site
									{
										OFFSET 0.54120 -0.00000 0.54120
									}
								}
							}
						}
					}
				}
				JOINT RightShoulder
				{
					OFFSET 0 0 0
					CHANNELS 3 Zrotation Yrotation Xrotation
					JOINT RightArm
					{
						OFFSET -3.49802 0.75994 -0.32616
						CHANNELS 3 Zrotation Yrotation Xrotation
						JOINT RightForeArm
						{
							OFFSET -5.02649 -0.00000 0.00000
							CHANNELS 3 Zrotation Yrotation Xrotation
							JOINT RightHand
							{
								OFFSET -3.36431 -0.00000 0.00000
								CHANNELS 3 Zrotation Yrotation Xrotation
								JOINT RightFingerBase
								{
									OFFSET 0 0 0
									CHANNELS 3 Zrotation Yrotation Xrotation
									JOINT RightHandIndex1
									{
										OFFSET -0.73041 -0.00000 0.00000
										CHANNELS 3 Zrotation Yrotation Xrotation
										End Site
										{
											OFFSET -0.58887 -0.00000 0.00000
										}
									}
								}
								JOINT RThumb
								{
									OFFSET 0 0 0
									CHANNELS 3 Zrotation Yrotation Xrotation
									End Site
									{
										OFFSET -0.59786 -0.00000 0.59786
									}
								}
							}
						}
					}
				}
			}
		}
	}
}
MOTION
Frames: 12
Frame Time: 0.033333
9.63 17.80 -1.04 0.00 0.00 0.00 0.00 0.00 0.00 -21.00 0.00 0.00 0.00 0.00 0.00 0.00 0.00 0.00 0.00 0.00 0.00 0.00 0.00 0.00 21.00 0.00 0.00 0.00 0.00 0.00 0.00 0.00 0.00 0.00 0.00 0.00 0.00 0.00 0.00 0.00 0.00 0.00 0.00 0.00 0.00 0.00 0.00 -16.00 0.00 0.00 21.00 0.00 0.00 11.00 0.00 0.00 0.00 -8.00 0.00 0.00 0.00 0.00 0.00 0.00 0.00 0.00 0.00 0.00 0.00 0.00 0.00 0.00 0.00 0.00 0.00 0.00 0.00 0.00 8.00 0.00 0.00 0.00 0.00 0.00 0.00 0.00 0.00 0.00 0.00 0.00 0.00 0.00 0.00 0.00 0.00 0.00
9.63 17.81 -1.06 3.65 -23.01 -6.72 0.00 0.00 0.00 -21.29 -1.28 -6.02 0.70 5.35 14.92 -0.92 17.03 -9.86 0.03 -1.06 -2.93 0.00 0.00 0.00 19.53 -5.49 4.01 -0.88 -5.97 16.69 -0.39 -13.41 -23.12 -0.00 -0.28 0.76 -0.19 1.29 5.86 0.68 1.70 2.83 0.70 0.84 -0.40 0.90 6.49 -9.54 -4.24 8.74 1.95 -1.06 4.22 2.52 -0.00 -0.00 0.00 -92.34 -0.80 15.05 20.07 -30.73 -5.57 -0.00 0.00 -26.74 25.77 16.65 7.88 -7.12 0.00 -0.00 -2.00 48.34 -0.17 -0.00 -0.00 0.00 80.33 5.05 37.71 -19.15 29.60 -5.10 0.00 -0.00 -15.96 -24.78 15.91 -7.21 7.12 -0.00 -0.00 1.96 -12.55 1.48
9.67 17.81 -1.08 3.96 -23.53 -6.97 0.00 0.00 0.00 -21.62 -1.13 -5.78 0.68 5.25 14.64 -0.98 17.43 -9.51 0.07 -1.66 -4.56 0.00 0.00 0.00 19.08 -5.40 3.82 -0.91 -6.09 17.04 -0.37 -13.14 -22.63 -0.00 -0.11 0.30 -0.12 1.27 5.74 0.46 1.67 2.95 0.44 0.83 -0.19 0.92 6.53 -9.65 -3.98 8.77 1.84 -0.98 4.24 2.49 0.00 0.00 0.00 -91.10 -2.16 17.29 23.04 -34.13 -7.16 -0.00 0.00 -28.34 25.08 19.18 8.74 -7.12 0.00 -0.00 -3.21 50.96 -0.47 0.00 0.00 0.00 78.99 6.81 39.31 -21.90 32.87 -6.53 0.00 -0.00 -17.19 -25.72 15.24 -7.22 7.12 -0.00 -0.00 1.27 -13.15 0.95
9.69 17.80 -1.09 4.37 -24.12 -7.45 0.00 0.00 0.00 -22.02 -0.54 -5.42 0.64 5.13 14.27 -1.03 17.73 -9.09 0.11 -2.12 -5.83 0.00 0.00 0.00 18.67 -4.93 3.90 -0.97 -6.28 17.60 -0.50 -12.55 -23.12 -0.02 0.87 -2.40 -0.50 1.29 5.80 0.45 1.68 3.01 0.64 0.83 -0.18 2.46 6.40 -10.34 -5.92 8.58 2.96 -1.85 4.07 3.20 -0.00 0.00 0.00 -89.93 -2.97 19.89 26.15 -37.36 -8.98 -0.00 0.00 -29.74 25.67 18.73 8.77 -7.12 0.00 -0.00 -2.52 50.58 -0.35 -0.00 0.00 0.00 76.88 8.32 41.30 -25.26 36.47 -8.45 0.00 -0.00 -19.42 -26.32 15.42 -7.49 7.12 -0.00 -0.00 0.88 -12.88 0.66
9.70 17.80 -1.10 5.09 -24.78 -7.77 0.00 0.00 0.00 -22.68 -0.15 -5.20 0.59 4.91 13.65 -1.09 18.25 -9.41 0.06 -1.51 -4.17 0.00 0.00 0.00 17.84 -4.79 3.58 -1.02 -6.43 18.04 -0.49 -12.14 -22.58 -0.00 0.17 -0.46 -0.97 1.44 5.51 0.24 1.85 3.01 0.69 0.91 -0.04 0.45 6.62 -9.61 -3.14 8.91 1.97 -0.62 4.33 2.46 -0.00 0.00 0.00 -88.35 -3.88 22.78 29.90 -40.81 -11.34 -0.00 0.00 -31.09 25.59 17.86 8.36 -7.12 0.00 -0.00 -2.41 49.63 -0.28 -0.00 0.00 0.00 75.37 9.68 42.07 -29.33 40.31 -10.97 0.00 -0.00 -19.76 -26.19 16.68 -8.04 7.12 -0.00 -0.00 1.08 -11.52 0.85
9.72 17.79 -1.11 5.09 -25.29 -8.06 0.00 0.00 0.00 -22.61 -0.13 -4.98 0.61 4.99 13.88 -1.11 18.49 -10.11 0.01 -0.74 -2.04 0.00 0.00 0.00 17.82 -4.56 3.84 -1.03 -6.45 18.08 -0.53 -11.98 -22.81 -0.00 0.34 -0.95 -1.09 1.34 5.51 0.47 1.72 2.94 1.00 0.84 -0.11 1.06 6.93 -10.04 -3.89 9.33 2.92 -0.91 4.50 2.95 -0.00 0.00 0.00 -87.38 -4.30 24.63 34.41 -44.39 -14.40 -0.00 0.00 -31.97 26.47 17.57 8.55 -7.12 0.00 -0.00 -1.49 49.45 -0.16 -0.00 0.00 0.00 73.21 10.73 43.13 -34.03 44.11 -14.14 0.00 -0.00 -20.90 -26.34 16.06 -7.80 7.12 -0.00 -0.00 0.92 -12.17 0.71
9.72 17.79 -1.11 4.73 -26.12 -8.15 0.00 0.00 0.00 -22.09 0.22 -5.09 0.66 5.20 14.49 -1.06 18.43 -11.80 0.00 0.01 0.02 0.00 0.00 0.00 18.37 -3.85 4.37 -1.00 -6.36 17.82 -0.47 -12.36 -22.68 -0.00 0.39 -1.08 -0.61 1.20 5.48 0.46 1.56 2.80 0.73 0.77 -0.23 2.53 6.85 -9.61 -5.38 9.16 3.21 -1.66 4.38 3.14 0.00 -0.00 0.00 -85.84 -3.94 25.87 40.65 -48.45 -18.93 -0.00 0.00 -32.95 26.85 17.02 8.43 -7.12 0.00 -0.00 -1.01 48.91 -0.10 0.00 -0.00 0.00 71.39 11.67 44.96 -39.78 47.94 -18.28 0.00 -0.00 -22.08 -25.86 16.16 -7.68 7.12 -0.00 -0.00 1.26 -12.13 0.97
9.73 17.78 -1.12 4.60 -27.09 -8.48 0.00 0.00 0.00 -21.81 0.83 -5.07 0.71 5.40 15.05 -1.12 18.71 -11.15 0.05 -1.43 -3.94 0.00 0.00 0.00 18.45 -3.78 4.67 -1.00 -6.35 17.81 -0.52 -11.54 -22.26 -0.00 -0.01 0.03 -0.40 1.26 5.78 0.61 1.65 2.71 0.75 0.81 -0.48 0.23 7.06 -8.66 -2.77 9.52 2.41 -0.47 4.65 2.41 0.00 0.00 0.00 -84.60 -3.85 27.54 47.17 -51.79 -23.93 -0.00 0.00 -33.60 27.64 15.24 7.84 -7.12 0.00 -0.00 0.02 47.07 0.00 0.00 0.00 0.00 70.02 12.39 45.33 -46.25 51.37 -23.21 0.00 -0.00 -22.98 -27.41 15.65 -7.96 7.12 -0.00 -0.00 0.17 -12.47 0.13
9.73 17.77 -1.14 4.41 -28.43 -8.61 0.00 0.00 0.00 -21.37 1.49 -5.19 0.75 5.52 15.39 -1.11 19.04 -13.01 0.00 0.33 0.92 0.00 0.00 0.00 18.86 -2.88 4.82 -1.03 -6.45 18.10 -0.51 -11.32 -21.96 -0.01 0.58 -1.59 -0.14 1.43 5.92 0.73 1.89 2.60 0.71 0.93 -0.67 1.13 7.24 -9.03 -3.37 9.70 2.83 -0.77 4.72 2.71 -0.00 -0.00 0.00 -83.07 -3.76 29.06 54.52 -54.66 -29.82 -0.00 0.00 -34.58 27.80 14.92 7.73 -7.12 0.00 -0.00 0.22 46.74 0.01 -0.00 -0.00 0.00 68.46 12.93 45.86 -53.91 54.46 -29.33 0.00 -0.00 -23.56 -27.48 15.23 -7.78 7.12 -0.00 -0.00 0.09 -12.92 0.07
9.72 17.78 -1.14 5.49 -29.12 -9.21 0.00 0.00 0.00 -22.29 2.01 -4.52 0.63 5.10 14.19 -1.23 19.76 -12.70 0.00 0.31 0.86 0.00 0.00 0.00 17.84 -2.45 4.38 -1.15 -6.80 19.13 -0.61 -10.60 -22.21 -0.01 0.65 -1.78 -1.08 1.45 5.58 0.55 1.87 2.57 1.06 0.92 -0.53 1.71 7.51 -9.35 -3.70 10.06 3.76 -0.92 4.88 3.15 -0.00 0.00 0.00 -82.45 -3.55 29.64 62.01 -56.82 -36.02 -0.00 0.00 -34.52 28.18 14.96 7.87 -7.12 0.00 -0.00 0.58 46.84 0.03 -0.00 0.00 0.00 67.24 13.77 45.75 -60.34 56.40 -34.63 0.00 -0.00 -22.38 -25.17 16.47 -7.59 7.12 -0.00 -0.00 1.74 -11.90 1.34
9.71 17.78 -1.14 5.74 -29.92 -9.60 0.00 0.00 0.00 -22.39 2.07 -3.76 0.58 4.87 13.54 -1.34 20.65 -13.49 0.02 0.80 2.19 0.00 0.00 0.00 17.70 -2.07 4.32 -1.22 -7.00 19.73 -0.58 -10.51 -21.82 -0.03 1.05 -2.89 -0.95 1.35 5.35 0.48 1.74 2.53 0.92 0.86 -0.44 1.43 7.71 -8.27 -3.44 10.33 3.35 -0.82 5.04 2.78 0.00 -0.00 0.00 -80.81 -3.45 30.77 69.44 -58.34 -42.29 -0.00 0.00 -35.05 30.67 11.73 6.88 -7.12 0.00 -0.00 3.20 43.53 -0.12 0.00 -0.00 0.00 65.29 13.50 47.13 -70.70 58.54 -43.37 0.00 -0.00 -23.95 -26.67 16.59 -8.16 7.12 -0.00 -0.00 0.76 -11.55 0.59
9.69 17.77 -1.13 6.81 -31.57 -10.05 0.00 0.00 0.00 -23.08 3.14 -3.62 0.52 4.62 12.83 -1.43 21.27 -13.96 0.02 0.96 2.63 0.00 0.00 0.00 16.81 -1.16 3.89 -1.32 -7.27 20.51 -0.68 -9.46 -21.73 -0.03 1.05 -2.87 -1.66 1.67 4.63 0.38 2.15 2.39 1.22 1.06 -0.21 3.49 7.40 -9.07 -5.71 9.89 4.44 -1.89 4.74 3.58 -0.00 0.00 0.00 -80.41 -2.36 31.73 79.59 -59.59 -51.00 -0.00 0.00 -34.99 32.88 8.89 5.70 -7.12 0.00 -0.00 5.27 40.47 -0.59 -0.00 0.00 0.00 64.98 13.23 47.06 -79.45 59.58 -50.88 0.00 -0.00 -23.64 -26.35 16.79 -8.14 7.12 -0.00 -0.00 0.99 -11.37 0.78
